<svg id="visual" viewBox="0 0 900 600" width="900" height="600" xmlns="http://www.w3.org/2000/svg" xmlns:xlink="http://www.w3.org/1999/xlink" version="1.1"><rect x="0" y="0" width="900" height="600" fill="#161920"></rect><defs><linearGradient id="grad1_0" x1="33.3%" y1="100%" x2="100%" y2="0%"><stop offset="20%" stop-color="#161920" stop-opacity="1"></stop><stop offset="80%" stop-color="#161920" stop-opacity="1"></stop></linearGradient></defs><defs><linearGradient id="grad2_0" x1="0%" y1="100%" x2="66.7%" y2="0%"><stop offset="20%" stop-color="#161920" stop-opacity="1"></stop><stop offset="80%" stop-color="#161920" stop-opacity="1"></stop></linearGradient></defs><g transform="translate(900, 600)"><path d="M-351.5 0C-350.7 -38.7 -349.8 -77.3 -334.3 -108.6C-318.9 -140 -288.9 -163.9 -267 -194C-245 -224 -231.2 -260.1 -205.1 -282.3C-179.1 -304.6 -141 -313.2 -104.8 -322.4C-68.5 -331.6 -34.3 -341.6 0 -351.5L0 0Z" fill="#FBAE3C"></path></g><g transform="translate(0, 0)"><path d="M351.5 0C341.1 33.9 330.6 67.7 322.4 104.8C314.2 141.8 308.2 182 284.4 206.6C260.6 231.3 219 240.4 186.9 257.3C154.8 274.1 132.2 298.7 102.6 315.8C73 332.8 36.5 342.1 0 351.5L0 0Z" fill="#FBAE3C"></path></g></svg>